<svg xmlns="http://www.w3.org/2000/svg" id="Layer_1" width="512" height="512" viewBox="0 0 512 512"><path d="M192 224h-64v64h64v-64zm0 96h-64v64h64v-64zm96-96h-64v64h64v-64zm0 96h-64v64h64v-64zm96-96h-64v64h64v-64zm0 96h-64v64h64v-64zm96-256h-32v64h-96V64H160v64H64V64H32C14.3 64 0 78.3 0 96v352c0 17.7 14.3 32 32 32h448c17.7 0 32-14.3 32-32V96c0-17.7-14.3-32-32-32zm-32 352H64V192h384v224zM128 15.8C128 7.1 120.9 0 112.2 0h-.3C103.1 0 96 7.1 96 15.8V96h32V15.8zm288 0C416 7.1 408.9 0 400.2 0h-.3C391.1 0 384 7.1 384 15.8V96h32V15.8z"/></svg>