<svg xmlns="http://www.w3.org/2000/svg" id="Layer_1" width="512" height="512" viewBox="0 0 512 512"><path d="M103.3 417.4c2.8 1.4 5.8 2.1 8.7 2.1 7.2 0 14-4 17.5-10.8l76-152 32.3 86.1c2.7 7.3 9.5 12.2 17.2 12.6 7.7.4 15-3.8 18.5-10.8l76.5-153 15.9 39.7c2.9 7.3 9.8 12.1 17.7 12.3 7.8.2 15-4.3 18.2-11.4l80-176c4.5-9.8.1-21.4-9.7-25.8-9.8-4.5-21.4-.1-25.8 9.7l-61.1 134.4-15-37.6c-2.9-7.1-9.6-11.9-17.3-12.2-7.7-.3-14.8 3.9-18.3 10.8l-76 152-32.3-86.1c-2.7-7.3-9.5-12.2-17.2-12.6-7.8-.4-15 3.8-18.5 10.8l-96 192c-4.9 9.3-1 21 8.7 25.8zM64 448V0H0v512h512v-64H64z"/></svg>