<svg xmlns="http://www.w3.org/2000/svg" id="Layer_3" width="512" height="512" viewBox="0 0 512 512"><path d="M224 384h64V224h-64v160zm32-256c-17.673 0-32 14.327-32 32s14.327 32 32 32c17.674 0 32-14.327 32-32s-14.326-32-32-32zm0-128C114.615 0 0 114.615 0 256c0 141.384 114.615 256 256 256s256-114.616 256-256C512 114.615 397.385 0 256 0zm135.765 391.764C355.5 428.028 307.285 448 256 448s-99.5-19.972-135.765-56.236C83.972 355.5 64 307.285 64 256s19.972-99.5 56.235-135.765C156.5 83.972 204.715 64 256 64s99.5 19.972 135.765 56.235C428.028 156.5 448 204.715 448 256c0 51.284-19.972 99.5-56.235 135.764z"/></svg>