<svg xmlns="http://www.w3.org/2000/svg" id="Layer_1" width="512" height="512" viewBox="0 0 512 512"><path d="M256 0C114.6 0 0 114.6 0 256s114.6 256 256 256 256-114.6 256-256S397.4 0 256 0zM120.2 391.8C84 355.5 64 307.3 64 256c0-18.2 2.5-35.9 7.4-52.9l16.2 42.7 90.2 71.2 15 3.4-22.1 35.4 32.7 84.9c-31.1-8.8-59.6-25.4-83.2-48.9zm290.1-21.4c-5.6 7.5-11.8 14.7-18.5 21.4-34.7 34.7-80.4 54.5-129.3 56.1l53.7-42.4 6.9-36.2-135.7-63.1-8.4-14.6-11-7.6-5.7-25.1-18.6 7.6 6.2-24.4 22.2-2.9 19.8 22 6.5-38 24.3-33.6 25.9-9.2 2.6-17.5-5.6-6 24.5-4 2.8-19.2-22.2-22.9-19 2.5-23.5-11.7-12.8 40.1-28.3-17.2 41.1-43-52.6 10.7c26.6-16.3 56.7-25.9 88.3-27.8l59.6 52.4 21.9 5.9 4.6-16.9 22.5-15.7c14.1 8.2 27.2 18.3 39 30.1 5.9 5.9 11.4 12.2 16.5 18.7L390.6 169l-17.1 3.4 21 132.4 23.4 24.5-7.6 41.1zm1.2-172.3l7.9-10.6 9 10.9-16.9-.3z"/></svg>