<svg xmlns="http://www.w3.org/2000/svg" id="Layer_1" width="512" height="512" viewBox="0 0 512 512"><path d="M256 0C114.6 0 0 114.6 0 256s114.6 256 256 256 256-114.6 256-256S397.4 0 256 0zm135.8 391.8C355.5 428 307.3 448 256 448s-99.5-20-135.8-56.2S64 307.3 64 256s20-99.5 56.2-135.8S204.7 64 256 64s99.5 20 135.8 56.2S448 204.7 448 256s-20 99.5-56.2 135.8zM256 128c-70.7 0-128 57.3-128 128s57.3 128 128 128 128-57.3 128-128-57.3-128-128-128zm0 208c-44.1 0-80-35.9-80-80s35.9-80 80-80 80 35.9 80 80-35.9 80-80 80zm0-112c-17.7 0-32 14.3-32 32s14.3 32 32 32 32-14.3 32-32-14.3-32-32-32z"/></svg>