<?xml version="1.0" encoding="utf-8"?>
<!-- Generator: Adobe Illustrator 19.1.0, SVG Export Plug-In . SVG Version: 6.00 Build 0)  -->
<svg version="1.1" id="Layer_3" xmlns="http://www.w3.org/2000/svg" xmlns:xlink="http://www.w3.org/1999/xlink" x="0px" y="0px"
	 viewBox="241 -241 512 512" style="enable-background:new 241 -241 512 512;" xml:space="preserve">
<path d="M497-241c-141.4,0-256,114.6-256,256s114.6,256,256,256S753,156.4,753,15S638.4-241,497-241z M305,15
	c0-51.3,20-99.5,56.2-135.8C397.5-157,445.7-177,497-177s99.5,20,135.8,56.2c0.8,0.8,1.7,1.7,2.5,2.5L363.7,153.3
	c-0.8-0.8-1.7-1.6-2.5-2.5C325,114.5,305,66.3,305,15z"/>
</svg>
